<mxfile host="app.diagrams.net" agent="Mozilla/5.0 (Windows NT 10.0; Win64; x64) AppleWebKit/537.36 (KHTML, like Gecko) Chrome/131.0.0.0 Safari/537.36" version="25.0.1" pages="2">
  <diagram name="Page-1" id="xMJSR3XoTYybtMSvvy1I">
    <mxGraphModel dx="2227" dy="1865" grid="1" gridSize="10" guides="1" tooltips="1" connect="1" arrows="1" fold="1" page="1" pageScale="1" pageWidth="827" pageHeight="1169" math="0" shadow="0">
      <root>
        <mxCell id="0" />
        <mxCell id="1" parent="0" />
        <mxCell id="xFx9iDnlR7trCT4aLByv-4" value="" style="edgeStyle=orthogonalEdgeStyle;rounded=0;orthogonalLoop=1;jettySize=auto;html=1;" edge="1" parent="1" source="xFx9iDnlR7trCT4aLByv-2" target="xFx9iDnlR7trCT4aLByv-3">
          <mxGeometry relative="1" as="geometry" />
        </mxCell>
        <mxCell id="xFx9iDnlR7trCT4aLByv-2" value="" style="ellipse;whiteSpace=wrap;html=1;aspect=fixed;labelBackgroundColor=none;fillColor=#000000;" vertex="1" parent="1">
          <mxGeometry x="404" y="-1130" width="20" height="20" as="geometry" />
        </mxCell>
        <mxCell id="xFx9iDnlR7trCT4aLByv-8" value="" style="edgeStyle=orthogonalEdgeStyle;rounded=0;orthogonalLoop=1;jettySize=auto;html=1;" edge="1" parent="1" source="xFx9iDnlR7trCT4aLByv-3" target="xFx9iDnlR7trCT4aLByv-7">
          <mxGeometry relative="1" as="geometry" />
        </mxCell>
        <mxCell id="xFx9iDnlR7trCT4aLByv-3" value="Customer logs into the System" style="rounded=1;whiteSpace=wrap;html=1;fillColor=none;" vertex="1" parent="1">
          <mxGeometry x="339" y="-1080" width="150" height="50" as="geometry" />
        </mxCell>
        <mxCell id="xFx9iDnlR7trCT4aLByv-11" value="" style="edgeStyle=orthogonalEdgeStyle;rounded=0;orthogonalLoop=1;jettySize=auto;html=1;" edge="1" parent="1" source="xFx9iDnlR7trCT4aLByv-7" target="xFx9iDnlR7trCT4aLByv-9">
          <mxGeometry relative="1" as="geometry" />
        </mxCell>
        <mxCell id="xFx9iDnlR7trCT4aLByv-7" value="Customer Navigates to the Delivery Scheduling Page" style="rounded=1;whiteSpace=wrap;html=1;fillColor=none;" vertex="1" parent="1">
          <mxGeometry x="339" y="-1010" width="150" height="50" as="geometry" />
        </mxCell>
        <mxCell id="xFx9iDnlR7trCT4aLByv-13" value="" style="edgeStyle=orthogonalEdgeStyle;rounded=0;orthogonalLoop=1;jettySize=auto;html=1;" edge="1" parent="1" source="xFx9iDnlR7trCT4aLByv-9" target="xFx9iDnlR7trCT4aLByv-12">
          <mxGeometry relative="1" as="geometry" />
        </mxCell>
        <mxCell id="xFx9iDnlR7trCT4aLByv-9" value="Customer Selects a Delivery" style="rounded=1;whiteSpace=wrap;html=1;fillColor=none;" vertex="1" parent="1">
          <mxGeometry x="339" y="-930" width="150" height="50" as="geometry" />
        </mxCell>
        <mxCell id="xFx9iDnlR7trCT4aLByv-18" value="" style="edgeStyle=orthogonalEdgeStyle;rounded=0;orthogonalLoop=1;jettySize=auto;html=1;" edge="1" parent="1" source="xFx9iDnlR7trCT4aLByv-12">
          <mxGeometry relative="1" as="geometry">
            <mxPoint x="230" y="-835" as="targetPoint" />
          </mxGeometry>
        </mxCell>
        <mxCell id="xFx9iDnlR7trCT4aLByv-20" value="" style="edgeStyle=orthogonalEdgeStyle;rounded=0;orthogonalLoop=1;jettySize=auto;html=1;" edge="1" parent="1" source="xFx9iDnlR7trCT4aLByv-12">
          <mxGeometry relative="1" as="geometry">
            <mxPoint x="580" y="-835" as="targetPoint" />
          </mxGeometry>
        </mxCell>
        <mxCell id="xFx9iDnlR7trCT4aLByv-12" value="" style="rhombus;whiteSpace=wrap;html=1;fillColor=none;" vertex="1" parent="1">
          <mxGeometry x="399" y="-850" width="30" height="30" as="geometry" />
        </mxCell>
        <mxCell id="xFx9iDnlR7trCT4aLByv-21" value="Reschedule" style="text;html=1;align=center;verticalAlign=middle;resizable=0;points=[];autosize=1;strokeColor=none;fillColor=none;" vertex="1" parent="1">
          <mxGeometry x="230" y="-862" width="90" height="30" as="geometry" />
        </mxCell>
        <mxCell id="xFx9iDnlR7trCT4aLByv-22" value="Cancel" style="text;html=1;align=center;verticalAlign=middle;resizable=0;points=[];autosize=1;strokeColor=none;fillColor=none;" vertex="1" parent="1">
          <mxGeometry x="510" y="-862" width="60" height="30" as="geometry" />
        </mxCell>
        <mxCell id="xFx9iDnlR7trCT4aLByv-26" value="" style="edgeStyle=orthogonalEdgeStyle;rounded=0;orthogonalLoop=1;jettySize=auto;html=1;" edge="1" parent="1" source="xFx9iDnlR7trCT4aLByv-24" target="xFx9iDnlR7trCT4aLByv-25">
          <mxGeometry relative="1" as="geometry" />
        </mxCell>
        <mxCell id="xFx9iDnlR7trCT4aLByv-34" value="" style="edgeStyle=orthogonalEdgeStyle;rounded=0;orthogonalLoop=1;jettySize=auto;html=1;" edge="1" parent="1" source="xFx9iDnlR7trCT4aLByv-24" target="xFx9iDnlR7trCT4aLByv-33">
          <mxGeometry relative="1" as="geometry" />
        </mxCell>
        <mxCell id="xFx9iDnlR7trCT4aLByv-24" value="" style="rhombus;whiteSpace=wrap;html=1;fillColor=none;" vertex="1" parent="1">
          <mxGeometry x="200" y="-850" width="30" height="30" as="geometry" />
        </mxCell>
        <mxCell id="xFx9iDnlR7trCT4aLByv-28" value="" style="edgeStyle=orthogonalEdgeStyle;rounded=0;orthogonalLoop=1;jettySize=auto;html=1;" edge="1" parent="1" source="xFx9iDnlR7trCT4aLByv-25" target="xFx9iDnlR7trCT4aLByv-27">
          <mxGeometry relative="1" as="geometry" />
        </mxCell>
        <mxCell id="xFx9iDnlR7trCT4aLByv-25" value="System displays available Delivery Dates" style="rounded=1;whiteSpace=wrap;html=1;fillColor=none;" vertex="1" parent="1">
          <mxGeometry x="140" y="-780" width="150" height="50" as="geometry" />
        </mxCell>
        <mxCell id="xFx9iDnlR7trCT4aLByv-30" value="" style="edgeStyle=orthogonalEdgeStyle;rounded=0;orthogonalLoop=1;jettySize=auto;html=1;" edge="1" parent="1" source="xFx9iDnlR7trCT4aLByv-27" target="xFx9iDnlR7trCT4aLByv-29">
          <mxGeometry relative="1" as="geometry" />
        </mxCell>
        <mxCell id="xFx9iDnlR7trCT4aLByv-27" value="Customer Selects a Date" style="rounded=1;whiteSpace=wrap;html=1;fillColor=none;" vertex="1" parent="1">
          <mxGeometry x="140" y="-690" width="150" height="50" as="geometry" />
        </mxCell>
        <mxCell id="xFx9iDnlR7trCT4aLByv-32" value="" style="edgeStyle=orthogonalEdgeStyle;rounded=0;orthogonalLoop=1;jettySize=auto;html=1;" edge="1" parent="1" source="xFx9iDnlR7trCT4aLByv-29" target="xFx9iDnlR7trCT4aLByv-31">
          <mxGeometry relative="1" as="geometry" />
        </mxCell>
        <mxCell id="xFx9iDnlR7trCT4aLByv-29" value="System Updates the Package Details" style="rounded=1;whiteSpace=wrap;html=1;fillColor=none;" vertex="1" parent="1">
          <mxGeometry x="140" y="-609" width="150" height="50" as="geometry" />
        </mxCell>
        <mxCell id="xFx9iDnlR7trCT4aLByv-31" value="System sends confirmation notification to the customer" style="rounded=1;whiteSpace=wrap;html=1;fillColor=none;" vertex="1" parent="1">
          <mxGeometry x="140" y="-520" width="150" height="50" as="geometry" />
        </mxCell>
        <mxCell id="xFx9iDnlR7trCT4aLByv-35" style="edgeStyle=orthogonalEdgeStyle;rounded=0;orthogonalLoop=1;jettySize=auto;html=1;entryX=0;entryY=0.5;entryDx=0;entryDy=0;" edge="1" parent="1" source="xFx9iDnlR7trCT4aLByv-33" target="xFx9iDnlR7trCT4aLByv-7">
          <mxGeometry relative="1" as="geometry">
            <Array as="points">
              <mxPoint x="40" y="-985" />
            </Array>
          </mxGeometry>
        </mxCell>
        <mxCell id="xFx9iDnlR7trCT4aLByv-33" value="System prompts the User that the Package cannot be Rescheduled" style="rounded=1;whiteSpace=wrap;html=1;fillColor=none;" vertex="1" parent="1">
          <mxGeometry x="-30" y="-860" width="150" height="50" as="geometry" />
        </mxCell>
        <mxCell id="xFx9iDnlR7trCT4aLByv-38" value="" style="edgeStyle=orthogonalEdgeStyle;rounded=0;orthogonalLoop=1;jettySize=auto;html=1;" edge="1" parent="1" source="xFx9iDnlR7trCT4aLByv-36" target="xFx9iDnlR7trCT4aLByv-37">
          <mxGeometry relative="1" as="geometry" />
        </mxCell>
        <mxCell id="xFx9iDnlR7trCT4aLByv-44" value="" style="edgeStyle=orthogonalEdgeStyle;rounded=0;orthogonalLoop=1;jettySize=auto;html=1;" edge="1" parent="1" source="xFx9iDnlR7trCT4aLByv-36" target="xFx9iDnlR7trCT4aLByv-43">
          <mxGeometry relative="1" as="geometry" />
        </mxCell>
        <mxCell id="xFx9iDnlR7trCT4aLByv-36" value="" style="rhombus;whiteSpace=wrap;html=1;fillColor=none;" vertex="1" parent="1">
          <mxGeometry x="580" y="-850" width="30" height="30" as="geometry" />
        </mxCell>
        <mxCell id="xFx9iDnlR7trCT4aLByv-40" value="" style="edgeStyle=orthogonalEdgeStyle;rounded=0;orthogonalLoop=1;jettySize=auto;html=1;" edge="1" parent="1" source="xFx9iDnlR7trCT4aLByv-37" target="xFx9iDnlR7trCT4aLByv-39">
          <mxGeometry relative="1" as="geometry" />
        </mxCell>
        <mxCell id="xFx9iDnlR7trCT4aLByv-37" value="System asks User to define the reasons of cancellation&amp;nbsp;" style="rounded=1;whiteSpace=wrap;html=1;fillColor=none;" vertex="1" parent="1">
          <mxGeometry x="520" y="-780" width="150" height="50" as="geometry" />
        </mxCell>
        <mxCell id="xFx9iDnlR7trCT4aLByv-42" value="" style="edgeStyle=orthogonalEdgeStyle;rounded=0;orthogonalLoop=1;jettySize=auto;html=1;" edge="1" parent="1" source="xFx9iDnlR7trCT4aLByv-39" target="xFx9iDnlR7trCT4aLByv-41">
          <mxGeometry relative="1" as="geometry" />
        </mxCell>
        <mxCell id="xFx9iDnlR7trCT4aLByv-39" value="System Updates the Package Details" style="rounded=1;whiteSpace=wrap;html=1;fillColor=none;" vertex="1" parent="1">
          <mxGeometry x="520" y="-690" width="150" height="50" as="geometry" />
        </mxCell>
        <mxCell id="xFx9iDnlR7trCT4aLByv-41" value="System sends confirmation notification to the customer" style="rounded=1;whiteSpace=wrap;html=1;fillColor=none;" vertex="1" parent="1">
          <mxGeometry x="520" y="-609" width="150" height="50" as="geometry" />
        </mxCell>
        <mxCell id="xFx9iDnlR7trCT4aLByv-46" style="edgeStyle=orthogonalEdgeStyle;rounded=0;orthogonalLoop=1;jettySize=auto;html=1;entryX=1;entryY=0.5;entryDx=0;entryDy=0;" edge="1" parent="1" source="xFx9iDnlR7trCT4aLByv-43" target="xFx9iDnlR7trCT4aLByv-7">
          <mxGeometry relative="1" as="geometry">
            <Array as="points">
              <mxPoint x="775" y="-985" />
            </Array>
          </mxGeometry>
        </mxCell>
        <mxCell id="xFx9iDnlR7trCT4aLByv-43" value="System prompts the User that the Package cannot be Canceled" style="rounded=1;whiteSpace=wrap;html=1;fillColor=none;" vertex="1" parent="1">
          <mxGeometry x="700" y="-860" width="150" height="50" as="geometry" />
        </mxCell>
        <mxCell id="xFx9iDnlR7trCT4aLByv-47" value="Valid Date?" style="text;html=1;align=center;verticalAlign=middle;resizable=0;points=[];autosize=1;strokeColor=none;fillColor=none;" vertex="1" parent="1">
          <mxGeometry x="220" y="-820" width="80" height="30" as="geometry" />
        </mxCell>
        <mxCell id="xFx9iDnlR7trCT4aLByv-48" value="Valid Date?" style="text;html=1;align=center;verticalAlign=middle;resizable=0;points=[];autosize=1;strokeColor=none;fillColor=none;" vertex="1" parent="1">
          <mxGeometry x="510" y="-820" width="80" height="30" as="geometry" />
        </mxCell>
      </root>
    </mxGraphModel>
  </diagram>
  <diagram id="DmB2-c7885ETs_Ik4wVp" name="Page-2">
    <mxGraphModel dx="1235" dy="614" grid="1" gridSize="10" guides="1" tooltips="1" connect="1" arrows="1" fold="1" page="1" pageScale="1" pageWidth="827" pageHeight="1169" math="0" shadow="0">
      <root>
        <mxCell id="0" />
        <mxCell id="1" parent="0" />
        <mxCell id="_1dG07Ro8dpwD7PFylG_-1" value="" style="edgeStyle=orthogonalEdgeStyle;rounded=0;orthogonalLoop=1;jettySize=auto;html=1;" edge="1" parent="1" source="_1dG07Ro8dpwD7PFylG_-2" target="_1dG07Ro8dpwD7PFylG_-4">
          <mxGeometry relative="1" as="geometry" />
        </mxCell>
        <mxCell id="_1dG07Ro8dpwD7PFylG_-2" value="" style="ellipse;whiteSpace=wrap;html=1;aspect=fixed;labelBackgroundColor=none;fillColor=#000000;" vertex="1" parent="1">
          <mxGeometry x="404" y="60" width="20" height="20" as="geometry" />
        </mxCell>
        <mxCell id="_1dG07Ro8dpwD7PFylG_-3" value="" style="edgeStyle=orthogonalEdgeStyle;rounded=0;orthogonalLoop=1;jettySize=auto;html=1;" edge="1" parent="1" source="_1dG07Ro8dpwD7PFylG_-4" target="_1dG07Ro8dpwD7PFylG_-6">
          <mxGeometry relative="1" as="geometry" />
        </mxCell>
        <mxCell id="_1dG07Ro8dpwD7PFylG_-4" value="Customer activates the &quot;Voice Recognition&quot; Feature" style="rounded=1;whiteSpace=wrap;html=1;fillColor=none;" vertex="1" parent="1">
          <mxGeometry x="339" y="110" width="150" height="50" as="geometry" />
        </mxCell>
        <mxCell id="_1dG07Ro8dpwD7PFylG_-8" value="" style="edgeStyle=orthogonalEdgeStyle;rounded=0;orthogonalLoop=1;jettySize=auto;html=1;" edge="1" parent="1" source="_1dG07Ro8dpwD7PFylG_-6">
          <mxGeometry relative="1" as="geometry">
            <mxPoint x="414" y="250" as="targetPoint" />
          </mxGeometry>
        </mxCell>
        <mxCell id="_1dG07Ro8dpwD7PFylG_-6" value="System listens for the User&#39;s Voice Command" style="rounded=1;whiteSpace=wrap;html=1;fillColor=none;" vertex="1" parent="1">
          <mxGeometry x="339" y="180" width="150" height="50" as="geometry" />
        </mxCell>
        <mxCell id="YGTchAccQ23_LLkWJG8U-2" value="" style="rhombus;whiteSpace=wrap;html=1;fillColor=none;" vertex="1" parent="1">
          <mxGeometry x="399" y="250" width="30" height="30" as="geometry" />
        </mxCell>
        <mxCell id="YGTchAccQ23_LLkWJG8U-15" value="" style="edgeStyle=orthogonalEdgeStyle;rounded=0;orthogonalLoop=1;jettySize=auto;html=1;" edge="1" parent="1" source="YGTchAccQ23_LLkWJG8U-4" target="YGTchAccQ23_LLkWJG8U-14">
          <mxGeometry relative="1" as="geometry" />
        </mxCell>
        <mxCell id="YGTchAccQ23_LLkWJG8U-4" value="System Processes the Command" style="rounded=1;whiteSpace=wrap;html=1;fillColor=none;" vertex="1" parent="1">
          <mxGeometry x="210" y="290" width="150" height="50" as="geometry" />
        </mxCell>
        <mxCell id="YGTchAccQ23_LLkWJG8U-5" style="edgeStyle=orthogonalEdgeStyle;rounded=0;orthogonalLoop=1;jettySize=auto;html=1;entryX=0.459;entryY=0.032;entryDx=0;entryDy=0;entryPerimeter=0;" edge="1" parent="1" source="YGTchAccQ23_LLkWJG8U-2" target="YGTchAccQ23_LLkWJG8U-4">
          <mxGeometry relative="1" as="geometry" />
        </mxCell>
        <mxCell id="YGTchAccQ23_LLkWJG8U-24" value="" style="edgeStyle=orthogonalEdgeStyle;rounded=0;orthogonalLoop=1;jettySize=auto;html=1;" edge="1" parent="1" source="YGTchAccQ23_LLkWJG8U-12" target="YGTchAccQ23_LLkWJG8U-18">
          <mxGeometry relative="1" as="geometry" />
        </mxCell>
        <mxCell id="YGTchAccQ23_LLkWJG8U-12" value="System Prompts the User to speak again" style="rounded=1;whiteSpace=wrap;html=1;fillColor=none;" vertex="1" parent="1">
          <mxGeometry x="469" y="290" width="150" height="50" as="geometry" />
        </mxCell>
        <mxCell id="YGTchAccQ23_LLkWJG8U-13" style="edgeStyle=orthogonalEdgeStyle;rounded=0;orthogonalLoop=1;jettySize=auto;html=1;entryX=0.608;entryY=0.016;entryDx=0;entryDy=0;entryPerimeter=0;" edge="1" parent="1" source="YGTchAccQ23_LLkWJG8U-2" target="YGTchAccQ23_LLkWJG8U-12">
          <mxGeometry relative="1" as="geometry" />
        </mxCell>
        <mxCell id="YGTchAccQ23_LLkWJG8U-17" value="" style="edgeStyle=orthogonalEdgeStyle;rounded=0;orthogonalLoop=1;jettySize=auto;html=1;" edge="1" parent="1" source="YGTchAccQ23_LLkWJG8U-14" target="YGTchAccQ23_LLkWJG8U-16">
          <mxGeometry relative="1" as="geometry" />
        </mxCell>
        <mxCell id="YGTchAccQ23_LLkWJG8U-14" value="System Perform the Requested Action" style="rounded=1;whiteSpace=wrap;html=1;fillColor=none;" vertex="1" parent="1">
          <mxGeometry x="210" y="390" width="150" height="50" as="geometry" />
        </mxCell>
        <mxCell id="YGTchAccQ23_LLkWJG8U-39" style="edgeStyle=orthogonalEdgeStyle;rounded=0;orthogonalLoop=1;jettySize=auto;html=1;entryX=0;entryY=0.5;entryDx=0;entryDy=0;" edge="1" parent="1" source="YGTchAccQ23_LLkWJG8U-16" target="YGTchAccQ23_LLkWJG8U-36">
          <mxGeometry relative="1" as="geometry">
            <Array as="points">
              <mxPoint x="280" y="665" />
            </Array>
          </mxGeometry>
        </mxCell>
        <mxCell id="YGTchAccQ23_LLkWJG8U-16" value="System Confirms the Action (Verbally or via Interface Update)" style="rounded=1;whiteSpace=wrap;html=1;fillColor=none;" vertex="1" parent="1">
          <mxGeometry x="210" y="490" width="150" height="50" as="geometry" />
        </mxCell>
        <mxCell id="YGTchAccQ23_LLkWJG8U-25" style="edgeStyle=orthogonalEdgeStyle;rounded=0;orthogonalLoop=1;jettySize=auto;html=1;entryX=1;entryY=0.5;entryDx=0;entryDy=0;" edge="1" parent="1" source="YGTchAccQ23_LLkWJG8U-18" target="YGTchAccQ23_LLkWJG8U-4">
          <mxGeometry relative="1" as="geometry">
            <Array as="points">
              <mxPoint x="440" y="385" />
              <mxPoint x="440" y="315" />
            </Array>
          </mxGeometry>
        </mxCell>
        <mxCell id="YGTchAccQ23_LLkWJG8U-27" value="" style="edgeStyle=orthogonalEdgeStyle;rounded=0;orthogonalLoop=1;jettySize=auto;html=1;" edge="1" parent="1" source="YGTchAccQ23_LLkWJG8U-18" target="YGTchAccQ23_LLkWJG8U-26">
          <mxGeometry relative="1" as="geometry" />
        </mxCell>
        <mxCell id="YGTchAccQ23_LLkWJG8U-18" value="" style="rhombus;whiteSpace=wrap;html=1;fillColor=none;" vertex="1" parent="1">
          <mxGeometry x="529" y="370" width="30" height="30" as="geometry" />
        </mxCell>
        <mxCell id="YGTchAccQ23_LLkWJG8U-30" value="" style="edgeStyle=orthogonalEdgeStyle;rounded=0;orthogonalLoop=1;jettySize=auto;html=1;" edge="1" parent="1" source="YGTchAccQ23_LLkWJG8U-26" target="YGTchAccQ23_LLkWJG8U-28">
          <mxGeometry relative="1" as="geometry" />
        </mxCell>
        <mxCell id="YGTchAccQ23_LLkWJG8U-26" value="System Displays a list of Valid Commands" style="rounded=1;whiteSpace=wrap;html=1;fillColor=none;" vertex="1" parent="1">
          <mxGeometry x="469" y="430" width="150" height="50" as="geometry" />
        </mxCell>
        <mxCell id="YGTchAccQ23_LLkWJG8U-33" style="edgeStyle=orthogonalEdgeStyle;rounded=0;orthogonalLoop=1;jettySize=auto;html=1;entryX=1;entryY=1;entryDx=0;entryDy=0;" edge="1" parent="1" source="YGTchAccQ23_LLkWJG8U-28" target="YGTchAccQ23_LLkWJG8U-4">
          <mxGeometry relative="1" as="geometry">
            <Array as="points">
              <mxPoint x="400" y="535" />
              <mxPoint x="400" y="340" />
            </Array>
          </mxGeometry>
        </mxCell>
        <mxCell id="YGTchAccQ23_LLkWJG8U-35" value="" style="edgeStyle=orthogonalEdgeStyle;rounded=0;orthogonalLoop=1;jettySize=auto;html=1;" edge="1" parent="1" source="YGTchAccQ23_LLkWJG8U-28" target="YGTchAccQ23_LLkWJG8U-34">
          <mxGeometry relative="1" as="geometry" />
        </mxCell>
        <mxCell id="YGTchAccQ23_LLkWJG8U-28" value="" style="rhombus;whiteSpace=wrap;html=1;fillColor=none;" vertex="1" parent="1">
          <mxGeometry x="529" y="520" width="30" height="30" as="geometry" />
        </mxCell>
        <mxCell id="YGTchAccQ23_LLkWJG8U-38" style="edgeStyle=orthogonalEdgeStyle;rounded=0;orthogonalLoop=1;jettySize=auto;html=1;entryX=1;entryY=0.5;entryDx=0;entryDy=0;" edge="1" parent="1" source="YGTchAccQ23_LLkWJG8U-34" target="YGTchAccQ23_LLkWJG8U-36">
          <mxGeometry relative="1" as="geometry">
            <Array as="points">
              <mxPoint x="540" y="665" />
            </Array>
          </mxGeometry>
        </mxCell>
        <mxCell id="YGTchAccQ23_LLkWJG8U-34" value="User Decides to Proceed Manually" style="rounded=1;whiteSpace=wrap;html=1;fillColor=none;" vertex="1" parent="1">
          <mxGeometry x="469" y="580" width="150" height="50" as="geometry" />
        </mxCell>
        <mxCell id="YGTchAccQ23_LLkWJG8U-42" value="" style="edgeStyle=orthogonalEdgeStyle;rounded=0;orthogonalLoop=1;jettySize=auto;html=1;" edge="1" parent="1" source="YGTchAccQ23_LLkWJG8U-36" target="YGTchAccQ23_LLkWJG8U-41">
          <mxGeometry relative="1" as="geometry" />
        </mxCell>
        <mxCell id="YGTchAccQ23_LLkWJG8U-36" value="" style="rhombus;whiteSpace=wrap;html=1;fillColor=none;" vertex="1" parent="1">
          <mxGeometry x="399" y="650" width="30" height="30" as="geometry" />
        </mxCell>
        <mxCell id="YGTchAccQ23_LLkWJG8U-40" value="" style="ellipse;whiteSpace=wrap;html=1;aspect=fixed;labelBackgroundColor=none;fillColor=#000000;" vertex="1" parent="1">
          <mxGeometry x="404" y="720" width="20" height="20" as="geometry" />
        </mxCell>
        <mxCell id="YGTchAccQ23_LLkWJG8U-41" value="" style="ellipse;whiteSpace=wrap;html=1;aspect=fixed;fillColor=none;" vertex="1" parent="1">
          <mxGeometry x="398" y="714" width="33" height="33" as="geometry" />
        </mxCell>
      </root>
    </mxGraphModel>
  </diagram>
</mxfile>
